<?xml version="1.0" encoding="UTF-8"?>
<svg xmlns="http://www.w3.org/2000/svg" xmlns:xlink="http://www.w3.org/1999/xlink" width="1012.5pt" height="487.499991pt" viewBox="0 0 1012.5 487.499991" version="1.2">
<defs>
<clipPath id="clip1">
  <path d="M 0.269531 105 L 1011.730469 105 L 1011.730469 487 L 0.269531 487 Z M 0.269531 105 "/>
</clipPath>
<clipPath id="clip2">
  <path d="M 0.269531 80 L 1011.730469 80 L 1011.730469 197 L 0.269531 197 Z M 0.269531 80 "/>
</clipPath>
</defs>
<g id="surface1">
<g clip-path="url(#clip1)" clip-rule="nonzero">
<path style=" stroke:none;fill-rule:nonzero;fill:rgb(93.328857%,82.749939%,73.329163%);fill-opacity:1;" d="M 1084.84375 176.769531 C 1080.484375 170.539062 1075.5 164.859375 1069.890625 159.722656 C 1064.285156 154.585938 1058.1875 150.117188 1051.597656 146.316406 C 1023.753906 127.851562 969.023438 127.011719 945.019531 125.335938 C 467.570312 90.5625 490.375 103.035156 110.746094 144.636719 C -27.160156 159.746094 -58.488281 163.941406 -43.722656 376.515625 C -42.042969 400.496094 -38.203125 449.171875 -27.519531 471.355469 C -26.445312 473.957031 -25.203125 476.480469 -23.800781 478.925781 C -22.398438 481.367188 -20.847656 483.710938 -19.140625 485.957031 C -17.4375 488.199219 -15.597656 490.324219 -13.617188 492.332031 C -11.640625 494.335938 -9.539062 496.210938 -7.320312 497.945312 C -5.097656 499.683594 -2.777344 501.269531 -0.351562 502.707031 C 2.074219 504.144531 4.578125 505.421875 7.167969 506.535156 C 9.757812 507.652344 12.410156 508.59375 15.121094 509.367188 C 17.832031 510.140625 20.582031 510.738281 23.367188 511.160156 C 38.730469 514.875 120.828125 520.871094 122.027344 520.992188 C 344.308594 537.058594 451.847656 531.421875 777.828125 524.585938 C 834.597656 523.269531 1009.351562 516.433594 1062.160156 497.011719 C 1069.019531 494.6875 1075.445312 491.492188 1081.4375 487.421875 C 1087.425781 483.351562 1092.761719 478.554688 1097.445312 473.03125 C 1123.371094 439.101562 1126.25 383.109375 1125.050781 340.546875 C 1123.851562 318.246094 1110.769531 211.417969 1084.84375 176.769531 Z M 1084.84375 176.769531 "/>
</g>
<g clip-path="url(#clip2)" clip-rule="nonzero">
<path style=" stroke:none;fill-rule:nonzero;fill:rgb(91.369629%,70.199585%,63.919067%);fill-opacity:1;" d="M -94.175781 131.328125 C -106.183594 142.429688 -112.757812 158.09375 -111.613281 174.324219 C -110.46875 202.511719 -103.039062 195.109375 -103.039062 195.109375 C -103.039062 195.109375 14.15625 202.511719 205.09375 185.144531 C 396.03125 167.773438 510.652344 158.378906 577.253906 150.972656 C 643.851562 143.570312 730.175781 131.328125 779.339844 131.328125 C 828.503906 131.328125 1310.421875 123.921875 1310.421875 123.921875 L 1317.570312 96.871094 L 1317.570312 80.925781 C 1317.570312 80.925781 1086.039062 79.789062 881.382812 88.332031 C 676.722656 96.871094 -94.175781 131.328125 -94.175781 131.328125 Z M -94.175781 131.328125 "/>
</g>
</g>
</svg>
