<?xml version="1.0" encoding="UTF-8"?>
<svg xmlns="http://www.w3.org/2000/svg" xmlns:xlink="http://www.w3.org/1999/xlink" width="1012.5pt" height="487.499991pt" viewBox="0 0 1012.5 487.499991" version="1.2">
<defs>
<clipPath id="clip1">
  <path d="M 366 0 L 1011.730469 0 L 1011.730469 210 L 366 210 Z M 366 0 "/>
</clipPath>
<clipPath id="clip2">
  <path d="M 0.269531 122 L 1011.730469 122 L 1011.730469 487 L 0.269531 487 Z M 0.269531 122 "/>
</clipPath>
<clipPath id="clip3">
  <path d="M 0.269531 0 L 516 0 L 516 209 L 0.269531 209 Z M 0.269531 0 "/>
</clipPath>
<clipPath id="clip4">
  <path d="M -174.699219 88.949219 L 252.128906 -306.25 L 543.945312 8.917969 L 117.117188 404.117188 Z M -174.699219 88.949219 "/>
</clipPath>
<clipPath id="clip5">
  <path d="M -174.699219 88.949219 L 252.128906 -306.25 L 543.945312 8.917969 L 117.117188 404.117188 Z M -174.699219 88.949219 "/>
</clipPath>
<clipPath id="clip6">
  <path d="M -174.699219 88.949219 L 251.933594 -306.066406 L 543.972656 9.34375 L 117.339844 404.359375 Z M -174.699219 88.949219 "/>
</clipPath>
</defs>
<g id="surface1">
<g clip-path="url(#clip1)" clip-rule="nonzero">
<path style=" stroke:none;fill-rule:nonzero;fill:rgb(25.489807%,33.729553%,41.958618%);fill-opacity:1;" d="M 534.027344 205.390625 C 434.75 222.003906 346.960938 177.847656 370.5 84.132812 C 394.039062 -9.578125 611.292969 -9.71875 694.09375 -70.347656 C 776.898438 -130.976562 953.441406 -268.984375 1025.164062 -108.96875 C 1096.890625 51.050781 1052.71875 206.777344 909.269531 208.851562 C 765.820312 210.929688 534.027344 205.390625 534.027344 205.390625 Z M 534.027344 205.390625 "/>
</g>
<g clip-path="url(#clip2)" clip-rule="nonzero">
<path style=" stroke:none;fill-rule:nonzero;fill:rgb(64.709473%,72.938538%,80.389404%);fill-opacity:1;" d="M -56.4375 472.714844 C -52.140625 478.859375 -47.222656 484.464844 -41.691406 489.53125 C -36.164062 494.597656 -30.148438 499.007812 -23.648438 502.757812 C 3.8125 520.972656 57.789062 521.800781 81.460938 523.457031 C 552.339844 557.757812 529.851562 545.457031 904.253906 504.414062 C 1040.261719 489.507812 1071.15625 485.371094 1056.597656 275.652344 C 1054.941406 251.996094 1051.152344 203.972656 1040.617188 182.089844 C 1039.554688 179.519531 1038.332031 177.03125 1036.949219 174.621094 C 1035.566406 172.210938 1034.035156 169.898438 1032.355469 167.683594 C 1030.675781 165.472656 1028.859375 163.375 1026.90625 161.394531 C 1024.953125 159.414062 1022.882812 157.566406 1020.695312 155.855469 C 1018.503906 154.140625 1016.214844 152.578125 1013.824219 151.15625 C 1011.433594 149.738281 1008.960938 148.480469 1006.40625 147.378906 C 1003.851562 146.28125 1001.238281 145.347656 998.566406 144.585938 C 995.890625 143.824219 993.179688 143.234375 990.429688 142.820312 C 975.277344 139.152344 894.3125 133.238281 893.128906 133.121094 C 673.90625 117.269531 567.847656 122.828125 246.351562 129.570312 C 190.363281 130.871094 18.015625 137.613281 -34.066406 156.777344 C -40.832031 159.066406 -47.171875 162.222656 -53.078125 166.238281 C -58.988281 170.253906 -64.25 174.984375 -68.867188 180.433594 C -94.4375 213.90625 -97.277344 269.144531 -96.09375 311.136719 C -94.910156 333.136719 -82.007812 438.527344 -56.4375 472.714844 Z M -56.4375 472.714844 "/>
</g>
<g clip-path="url(#clip3)" clip-rule="nonzero">
<g clip-path="url(#clip4)" clip-rule="nonzero">
<g clip-path="url(#clip5)" clip-rule="nonzero">
<g clip-path="url(#clip6)" clip-rule="nonzero">
<path style=" stroke:none;fill-rule:nonzero;fill:rgb(93.328857%,82.749939%,73.329163%);fill-opacity:1;" d="M 240.667969 162.714844 C 204.867188 167.804688 168.890625 171.46875 133.183594 177.304688 C 47.605469 191.285156 5.179688 210.933594 -23.394531 207.859375 C -66.421875 203.265625 -66.367188 154.253906 -50.535156 113.761719 C -38 81.527344 -32.761719 67.0625 -28.035156 57.480469 C -22.121094 44.679688 -16.980469 31.578125 -12.621094 18.167969 C -2.523438 -10.578125 -7.277344 -35.582031 4.328125 -64.410156 C 5.714844 -68.246094 7.460938 -71.90625 9.566406 -75.398438 C 11.667969 -78.890625 14.089844 -82.148438 16.828125 -85.164062 C 19.566406 -88.183594 22.570312 -90.910156 25.839844 -93.34375 C 29.109375 -95.777344 32.585938 -97.871094 36.265625 -99.625 C 130.230469 -142.910156 164.117188 -113.71875 273.125 -65.179688 C 289.320312 -57.601562 306.113281 -51.753906 323.503906 -47.636719 C 392.90625 -32.410156 440.207031 -64.007812 489.226562 -36.070312 C 510.519531 -23.988281 524.242188 10.996094 507.945312 37.371094 C 504.277344 43.792969 499.808594 49.601562 494.539062 54.792969 C 435.550781 109.6875 378.621094 143.046875 240.667969 162.714844 Z M 240.667969 162.714844 "/>
</g>
</g>
</g>
</g>
</g>
</svg>
