<?xml version="1.0" encoding="UTF-8"?>
<svg xmlns="http://www.w3.org/2000/svg" xmlns:xlink="http://www.w3.org/1999/xlink" width="1012.5pt" height="487.499991pt" viewBox="0 0 1012.5 487.499991" version="1.2">
<defs>
<clipPath id="clip1">
  <path d="M 0.269531 136 L 247 136 L 247 487 L 0.269531 487 Z M 0.269531 136 "/>
</clipPath>
<clipPath id="clip2">
  <path d="M 119.507812 48.730469 L 382.625 570.867188 L -2.285156 764.835938 L -265.402344 242.695312 Z M 119.507812 48.730469 "/>
</clipPath>
<clipPath id="clip3">
  <path d="M 119.507812 48.730469 L 382.625 570.867188 L -2.285156 764.835938 L -265.402344 242.695312 Z M 119.507812 48.730469 "/>
</clipPath>
<clipPath id="clip4">
  <path d="M 677 0 L 1011.730469 0 L 1011.730469 282 L 677 282 Z M 677 0 "/>
</clipPath>
<clipPath id="clip5">
  <path d="M 631.261719 64.804688 L 1053.09375 -82.347656 L 1153.335938 205.007812 L 731.503906 352.160156 Z M 631.261719 64.804688 "/>
</clipPath>
<clipPath id="clip6">
  <path d="M 631.261719 64.804688 L 1053.09375 -82.347656 L 1153.335938 205.007812 L 731.503906 352.160156 Z M 631.261719 64.804688 "/>
</clipPath>
</defs>
<g id="surface1">
<g clip-path="url(#clip1)" clip-rule="nonzero">
<g clip-path="url(#clip2)" clip-rule="nonzero">
<g clip-path="url(#clip3)" clip-rule="nonzero">
<path style=" stroke:none;fill-rule:nonzero;fill:rgb(91.369629%,70.199585%,63.919067%);fill-opacity:1;" d="M -66.410156 429.195312 C -61.429688 393.203125 -55.019531 357.445312 -50.785156 321.339844 C -40.621094 234.808594 -47.851562 188.363281 -36.992188 161.632812 C -20.675781 121.371094 26.585938 135.097656 61.265625 161.683594 C 88.890625 182.78125 101.398438 191.875 109.335938 199.113281 C 120.042969 208.394531 131.261719 217.011719 142.992188 224.96875 C 167.925781 242.738281 193.359375 245.121094 217.957031 264.371094 C 221.273438 266.78125 224.324219 269.492188 227.109375 272.496094 C 229.894531 275.5 232.367188 278.746094 234.523438 282.234375 C 236.679688 285.71875 238.476562 289.378906 239.921875 293.214844 C 241.363281 297.054688 242.421875 300.992188 243.097656 305.035156 C 258.886719 407.839844 221.367188 432.414062 144.429688 524.121094 C 132.644531 537.644531 122.367188 552.226562 113.589844 567.867188 C 79.730469 630.632812 97.132812 685.117188 56.644531 724.652344 C 39.109375 741.84375 1.574219 745.328125 -19.363281 722.234375 C -24.542969 716.902344 -28.910156 710.964844 -32.460938 704.429688 C -69.113281 632.15625 -85.554688 567.878906 -66.410156 429.195312 Z M -66.410156 429.195312 "/>
</g>
</g>
</g>
<g clip-path="url(#clip4)" clip-rule="nonzero">
<g clip-path="url(#clip5)" clip-rule="nonzero">
<g clip-path="url(#clip6)" clip-rule="nonzero">
<path style=" stroke:none;fill-rule:nonzero;fill:rgb(90.19928%,69.018555%,36.859131%);fill-opacity:1;" d="M 921.164062 -35.300781 C 931.257812 -38.820312 941.269531 -42.570312 951.441406 -45.859375 C 974.617188 -53.175781 999.351562 -53.0625 1022.429688 -45.175781 C 1026.75 -43.855469 1030.6875 -42.148438 1035.089844 -40.597656 C 1049.984375 -35.511719 1060.640625 -25.609375 1068.429688 -12.132812 C 1088.171875 21.59375 1096.695312 60.773438 1092.539062 99.753906 C 1091.398438 111.972656 1089.34375 124.515625 1087.125 136.597656 C 1084.125 153.066406 1078.039062 168.8125 1068.863281 183.066406 C 1062.925781 192.59375 1056.675781 201.96875 1050.429688 211.34375 C 1039.289062 228.082031 1025.652344 242.09375 1006.636719 250.269531 C 992.355469 256.535156 978.46875 263.179688 964.269531 269.675781 C 948.613281 276.421875 931.609375 280.042969 914.402344 280.132812 C 894.59375 280.875 874.777344 280.847656 854.96875 281.589844 C 834.082031 282.191406 813.429688 277.570312 794.863281 267.855469 C 781.714844 261.132812 769.011719 253.484375 756.238281 246.371094 C 745.09375 240.234375 734.476562 233.402344 722.964844 228.421875 C 694.359375 215.007812 672.28125 179.015625 678.453125 141.390625 C 678.941406 137.621094 679.816406 134.230469 681.148438 130.683594 C 689.554688 110.527344 703.609375 93.289062 721.644531 80.828125 C 722.25 80.359375 722.859375 79.890625 723.546875 79.648438 C 735.703125 75.410156 745.113281 66.984375 755.464844 59.777344 C 772.203125 48.023438 789.023438 36.503906 805.613281 25.0625 C 816.570312 17.382812 827.058594 9.097656 838.5625 2.257812 C 853.1875 -6.703125 868.675781 -14.675781 883.929688 -22.566406 C 890.652344 -25.425781 897.222656 -27.972656 904.261719 -29.917969 L 920.777344 -35.675781 L 920.9375 -35.21875 Z M 921.164062 -35.300781 "/>
</g>
</g>
</g>
</g>
</svg>
