<?xml version="1.0" encoding="UTF-8"?>
<svg xmlns="http://www.w3.org/2000/svg" xmlns:xlink="http://www.w3.org/1999/xlink" width="1680pt" height="944.999993pt" viewBox="0 0 1680 944.999993" version="1.2">
<defs>
<clipPath id="clip1">
  <path d="M 0 328 L 148 328 L 148 945 L 0 945 Z M 0 328 "/>
</clipPath>
<clipPath id="clip2">
  <path d="M -760.570312 431.011719 L 85.179688 258.0625 L 251.8125 1072.953125 L -593.933594 1245.898438 Z M -760.570312 431.011719 "/>
</clipPath>
<clipPath id="clip3">
  <path d="M -760.570312 431.011719 L 85.179688 258.0625 L 251.8125 1072.953125 L -593.933594 1245.898438 Z M -760.570312 431.011719 "/>
</clipPath>
<filter id="alpha" filterUnits="objectBoundingBox" x="0%" y="0%" width="100%" height="100%">
  <feColorMatrix type="matrix" in="SourceGraphic" values="0 0 0 0 1 0 0 0 0 1 0 0 0 0 1 0 0 0 1 0"/>
</filter>
<mask id="mask0">
  <g filter="url(#alpha)">
<rect x="0" y="0" width="1680" height="944.999993" style="fill:rgb(0%,0%,0%);fill-opacity:0.8196;stroke:none;"/>
  </g>
</mask>
<clipPath id="clip5">
  <path d="M 21 0 L 756 0 L 756 242 L 21 242 Z M 21 0 "/>
</clipPath>
<clipPath id="clip6">
  <path d="M 654.839844 -451.097656 L 806.65625 107.644531 L 100.265625 299.578125 L -51.550781 -259.164062 Z M 654.839844 -451.097656 "/>
</clipPath>
<clipPath id="clip7">
  <path d="M 654.839844 -451.097656 L 806.65625 107.644531 L 100.265625 299.578125 L -51.550781 -259.164062 Z M 654.839844 -451.097656 "/>
</clipPath>
<clipPath id="clip4">
  <rect x="0" y="0" width="807" height="301"/>
</clipPath>
<g id="surface5" clip-path="url(#clip4)">
<g clip-path="url(#clip5)" clip-rule="nonzero">
<g clip-path="url(#clip6)" clip-rule="nonzero">
<g clip-path="url(#clip7)" clip-rule="nonzero">
<path style=" stroke:none;fill-rule:nonzero;fill:rgb(12.159729%,39.608765%,39.99939%);fill-opacity:1;" d="M 403.855469 216.46875 C 373.753906 225.113281 343.378906 232.746094 312.425781 237.121094 C 287.347656 240.828125 261.917969 243.234375 236.625 239.859375 C 212.605469 236.601562 188.8125 231.886719 166.519531 222.417969 C 149.65625 215.199219 134.011719 205.628906 122.765625 190.515625 C 119.890625 186.796875 117.015625 183.074219 114.140625 179.351562 C 103.507812 165.9375 92.523438 152.925781 83.824219 138.054688 C 78.707031 129.507812 72.65625 121.523438 66.855469 113.320312 C 46.117188 83.859375 33.242188 51.332031 28.625 15.476562 C 26.695312 0.941406 24.289062 -13.625 22.316406 -28.304688 C 21.507812 -34.140625 21.132812 -40.09375 21.414062 -45.917969 C 21.949219 -57.085938 20.304688 -68.285156 23.0625 -79.28125 C 27.230469 -95.941406 31.4375 -112.457031 35.132812 -129.144531 C 39.5 -148.5 48.898438 -165.339844 58.953125 -182.046875 C 70.480469 -201.328125 84.703125 -218.699219 97.78125 -236.851562 C 103.652344 -244.96875 109.886719 -252.871094 115.386719 -261.199219 C 124.769531 -275.238281 137.082031 -286.503906 152.015625 -293.820312 C 170.515625 -302.886719 188.371094 -313.171875 206.789062 -322.523438 C 225.746094 -332.179688 245.398438 -339.847656 266.3125 -344.597656 C 283.570312 -348.511719 300.710938 -352.855469 318.019531 -356.007812 C 332.542969 -358.554688 346.777344 -362.734375 361.222656 -365.574219 C 382.621094 -369.679688 403.847656 -374.980469 425.011719 -379.953125 C 442.375 -384.050781 459.65625 -386.726562 477.554688 -386 C 489.917969 -385.632812 502.234375 -386.03125 514.652344 -386.609375 C 532.589844 -387.445312 549.882812 -384.378906 566.960938 -379.238281 C 576.105469 -376.441406 583.8125 -370.929688 592.046875 -366.335938 C 594.644531 -361.917969 598.96875 -360.296875 603.433594 -358.714844 C 606.179688 -357.753906 608.6875 -355.949219 611.222656 -354.621094 C 612.695312 -353.777344 614.597656 -353.050781 615.570312 -351.761719 C 621.671875 -343.019531 630.273438 -336.503906 637.269531 -328.46875 C 644.265625 -320.429688 651.226562 -312.539062 657.972656 -304.277344 C 664.011719 -296.914062 668.785156 -289.050781 673.140625 -280.449219 C 681.023438 -264.582031 689.011719 -248.894531 696.460938 -232.90625 C 699.886719 -225.449219 704.136719 -218.375 707.453125 -210.738281 C 714.652344 -194.527344 719.144531 -177.425781 725.082031 -160.714844 C 725.972656 -158.007812 726.035156 -154.917969 726.636719 -152.132812 C 727.566406 -147.570312 728.101562 -142.746094 729.464844 -138.304688 C 732.042969 -129.375 735.675781 -120.582031 733.839844 -110.765625 C 733.246094 -107.808594 736.136719 -105.179688 739.328125 -105.425781 C 742.523438 -105.671875 744.925781 -105.394531 746.804688 -102.488281 C 750.1875 -96.886719 752.273438 -90.929688 753.710938 -84.488281 C 758.007812 -66.402344 753.773438 -49.410156 747.933594 -32.609375 C 744.601562 -23.164062 741.453125 -13.613281 740.746094 -3.636719 C 740.601562 -1.890625 740.308594 -0.101562 739.652344 1.472656 C 734.160156 13.835938 728.667969 26.195312 720.457031 37.125 C 718.261719 39.894531 715.695312 42.453125 713.054688 44.726562 C 700.941406 55.003906 689.273438 65.78125 678.277344 77.3125 C 673.4375 82.351562 667.78125 86.683594 662.390625 91.410156 C 659.246094 94.128906 655.839844 96.449219 652.882812 99.273438 C 637.375 114.199219 619.164062 124.894531 600.285156 134.835938 C 588.886719 140.882812 577.039062 146.433594 565.640625 152.480469 C 558.84375 156.035156 552.007812 159.445312 545.773438 163.933594 C 532.769531 173.210938 518.480469 180.046875 503.585938 185.800781 C 488.730469 191.699219 474.136719 197.996094 458.8125 202.160156 C 449.703125 204.632812 440.515625 206.820312 431.40625 209.292969 C 422.035156 211.375 412.964844 213.996094 403.855469 216.46875 Z M 403.855469 216.46875 "/>
</g>
</g>
</g>
</g>
<clipPath id="clip8">
  <path d="M 1452 0 L 1680 0 L 1680 442 L 1452 442 Z M 1452 0 "/>
</clipPath>
<clipPath id="clip9">
  <path d="M 2106.332031 -334.421875 L 2596.355469 155.601562 L 1901.621094 850.335938 L 1411.597656 360.308594 Z M 2106.332031 -334.421875 "/>
</clipPath>
<clipPath id="clip10">
  <path d="M 2106.332031 -334.421875 L 2596.355469 155.601562 L 1901.621094 850.335938 L 1411.597656 360.308594 Z M 2106.332031 -334.421875 "/>
</clipPath>
<mask id="mask1">
  <g filter="url(#alpha)">
<rect x="0" y="0" width="1680" height="944.999993" style="fill:rgb(0%,0%,0%);fill-opacity:0.9176;stroke:none;"/>
  </g>
</mask>
<clipPath id="clip12">
  <path d="M 9 13 L 450 13 L 450 308 L 9 308 Z M 9 13 "/>
</clipPath>
<clipPath id="clip13">
  <path d="M 15.140625 746.167969 L -6.828125 16.746094 L 695.605469 -4.410156 L 717.574219 725.011719 Z M 15.140625 746.167969 "/>
</clipPath>
<clipPath id="clip14">
  <path d="M 15.140625 746.167969 L -6.828125 16.746094 L 695.605469 -4.410156 L 717.574219 725.011719 Z M 15.140625 746.167969 "/>
</clipPath>
<clipPath id="clip11">
  <rect x="0" y="0" width="450" height="308"/>
</clipPath>
<g id="surface8" clip-path="url(#clip11)">
<g clip-path="url(#clip12)" clip-rule="nonzero">
<g clip-path="url(#clip13)" clip-rule="nonzero">
<g clip-path="url(#clip14)" clip-rule="nonzero">
<path style=" stroke:none;fill-rule:nonzero;fill:rgb(78.039551%,59.999084%,54.899597%);fill-opacity:1;" d="M 713.601562 625.726562 C 713.089844 636.703125 708.378906 657.5 690.945312 670.8125 C 669.117188 687.347656 646.121094 702.371094 622.378906 716.011719 C 604.023438 726.542969 582.730469 728.308594 562.003906 725.417969 C 507.019531 718.082031 453.5625 705.5 406.015625 674.613281 C 382.953125 659.570312 359.886719 644.25 336.558594 629.636719 C 310.226562 613.285156 284.035156 596.792969 256.90625 581.871094 C 201.929688 551.492188 154.035156 513.730469 118.179688 460.855469 C 93.195312 423.808594 63.667969 389.851562 36.066406 354.570312 C 8.316406 319.015625 1.121094 280.589844 18.378906 238.199219 C 27.394531 215.867188 33.84375 192.207031 45.429688 171.34375 C 57.023438 150.621094 71.582031 130.511719 88.5 114.121094 C 130.925781 72.800781 182.449219 44.550781 236.808594 21.835938 C 266.621094 9.277344 298.191406 13.101562 327.855469 23.730469 C 360.503906 35.394531 390.242188 53.046875 414.734375 78.304688 C 460.242188 125.410156 506.703125 171.363281 550.707031 219.777344 C 592.679688 266.007812 622.6875 320.605469 648.542969 377.15625 C 680.402344 446.589844 696.539062 520.855469 712.257812 595.136719 C 713.851562 601.410156 713.078125 608.460938 713.601562 625.726562 Z M 713.601562 625.726562 "/>
</g>
</g>
</g>
</g>
</defs>
<g id="surface1">
<g clip-path="url(#clip1)" clip-rule="nonzero">
<g clip-path="url(#clip2)" clip-rule="nonzero">
<g clip-path="url(#clip3)" clip-rule="nonzero">
<path style=" stroke:none;fill-rule:nonzero;fill:rgb(78.039551%,59.999084%,54.899597%);fill-opacity:1;" d="M -479.011719 1221.210938 C -491.910156 1222.828125 -517.101562 1221.539062 -536.140625 1203.898438 C -559.824219 1181.78125 -581.984375 1157.996094 -602.683594 1133.066406 C -618.667969 1113.785156 -625.027344 1089.3125 -625.851562 1064.554688 C -628.414062 998.953125 -624.550781 934.074219 -598.164062 872.382812 C -585.292969 842.453125 -572.09375 812.457031 -559.777344 782.300781 C -546.042969 748.292969 -532.113281 714.417969 -520.203125 679.765625 C -495.90625 609.519531 -461.574219 546.035156 -407.191406 493.542969 C -369.0625 456.921875 -335.453125 415.628906 -299.910156 376.316406 C -264.074219 336.773438 -220.746094 320.621094 -167.847656 332.1875 C -139.996094 338.191406 -111.113281 340.933594 -84.453125 350.230469 C -57.957031 359.5625 -31.574219 372.480469 -9.054688 388.902344 C 47.683594 430.03125 91.023438 484.410156 128.488281 543.214844 C 149.152344 575.445312 151.074219 613.03125 144.679688 649.777344 C 137.6875 690.203125 123.121094 728.449219 98.632812 762.113281 C 52.929688 824.699219 8.757812 888.160156 -38.78125 949.253906 C -84.179688 1007.539062 -141.75 1053.5625 -202.4375 1095.136719 C -276.929688 1146.3125 -360.230469 1180.132812 -443.628906 1213.464844 C -450.621094 1216.589844 -458.992188 1217.117188 -479.011719 1221.210938 Z M -479.011719 1221.210938 "/>
</g>
</g>
</g>
<use xlink:href="#surface5" transform="matrix(1,0,0,1,0,-0.000000000000049249)" mask="url(#mask0)"/>
<g clip-path="url(#clip8)" clip-rule="nonzero">
<g clip-path="url(#clip9)" clip-rule="nonzero">
<g clip-path="url(#clip10)" clip-rule="nonzero">
<path style=" stroke:none;fill-rule:nonzero;fill:rgb(12.159729%,39.608765%,39.99939%);fill-opacity:1;" d="M 2023.054688 387.175781 C 2011.558594 377.667969 1998.078125 372.703125 1983.601562 369.296875 C 1965.152344 365.039062 1946.84375 360.925781 1928.535156 355.960938 C 1916.332031 352.554688 1904.125 349.433594 1891.636719 347.449219 C 1874.890625 344.894531 1857.859375 343.476562 1841.113281 342.058594 C 1833.449219 341.492188 1825.644531 341.632812 1817.835938 342.058594 C 1807.621094 342.628906 1797.542969 343.621094 1787.464844 344.617188 C 1785.195312 344.902344 1782.78125 345.894531 1780.511719 346.746094 C 1767.738281 351.289062 1755.957031 358.242188 1743.753906 364.207031 C 1737.648438 367.1875 1731.546875 370.449219 1726.292969 374.566406 C 1718.628906 380.8125 1709.972656 384.929688 1701.171875 389.1875 C 1691.804688 393.445312 1683.007812 398.273438 1674.207031 403.664062 C 1662.285156 411.046875 1649.792969 417.574219 1636.453125 422.402344 C 1629.640625 424.957031 1622.828125 427.796875 1616.015625 430.066406 C 1610.480469 431.914062 1604.804688 433.332031 1599.128906 434.753906 C 1594.445312 436.03125 1589.617188 436.882812 1585.078125 438.300781 C 1574.714844 442.132812 1564.070312 441.992188 1553.425781 440.714844 C 1541.789062 439.296875 1530.578125 437.171875 1519.082031 435.324219 C 1518.089844 435.183594 1517.238281 434.898438 1516.386719 434.617188 C 1507.304688 431.496094 1497.9375 428.375 1488.851562 425.25 C 1484.3125 423.550781 1479.769531 421.847656 1475.371094 420 C 1469.835938 417.589844 1465.4375 413.757812 1462.882812 408.363281 C 1461.039062 404.53125 1459.335938 400.273438 1457.914062 396.300781 C 1455.644531 389.488281 1458.058594 381.683594 1454.085938 375.15625 C 1453.660156 368.484375 1452.953125 361.53125 1452.808594 354.859375 C 1452.667969 343.363281 1455.082031 332.71875 1462.039062 323.210938 C 1464.449219 319.664062 1467.003906 315.972656 1469.558594 312.566406 C 1470.980469 310.578125 1472.398438 308.59375 1474.386719 307.171875 C 1481.480469 302.0625 1487.726562 295.816406 1493.261719 289.148438 C 1496.101562 285.742188 1500.21875 283.894531 1504.191406 282.191406 C 1508.449219 280.488281 1511.289062 277.648438 1514.125 274.242188 C 1519.945312 267.574219 1524.773438 260.476562 1529.457031 252.953125 C 1535.277344 244.011719 1541.09375 235.070312 1547.480469 226.414062 C 1553.019531 218.890625 1559.546875 212.363281 1567.210938 207.25 C 1581.121094 198.167969 1592.332031 185.820312 1604.113281 174.324219 C 1612.488281 166.230469 1620.863281 158.140625 1630.9375 152.039062 C 1647.402344 142.101562 1664.148438 132.167969 1682.457031 125.496094 C 1693.246094 121.519531 1703.464844 115.558594 1713.117188 109.03125 C 1729.152344 98.101562 1746.183594 88.730469 1763.214844 79.648438 C 1767.898438 77.234375 1773.007812 75.246094 1777.691406 72.835938 C 1783.652344 69.710938 1789.757812 66.445312 1795.152344 62.472656 C 1800.6875 58.640625 1805.511719 53.816406 1810.90625 49.558594 C 1814.738281 46.574219 1818.570312 43.59375 1822.402344 40.613281 C 1823.960938 39.335938 1825.238281 38.058594 1826.800781 36.78125 C 1830.632812 33.234375 1834.75 29.6875 1838.582031 26.136719 C 1841.136719 23.867188 1843.832031 21.738281 1845.679688 19.039062 C 1849.085938 14.214844 1853.625 10.523438 1858.027344 6.691406 C 1870.941406 -5.089844 1884 -16.441406 1898.195312 -26.945312 C 1900.179688 -28.367188 1902.308594 -29.925781 1903.445312 -31.914062 C 1908.695312 -41.992188 1918.488281 -48.378906 1923.601562 -58.3125 C 1925.160156 -61.292969 1928.140625 -63.421875 1930.414062 -65.976562 C 1934.671875 -70.519531 1938.929688 -75.34375 1943.1875 -79.886719 C 1946.878906 -83.863281 1950.992188 -87.125 1954.398438 -91.382812 C 1961.070312 -100.324219 1970.582031 -106.710938 1977.675781 -115.230469 C 1981.652344 -120.054688 1987.042969 -123.746094 1992.011719 -127.578125 C 1997.832031 -131.976562 2003.933594 -135.808594 2009.613281 -140.351562 C 2012.875 -143.046875 2017.132812 -144.46875 2020.964844 -146.597656 C 2022.667969 -147.449219 2024.941406 -148.300781 2025.648438 -149.863281 C 2028.0625 -153.976562 2032.179688 -155.539062 2036.152344 -156.957031 C 2039.84375 -158.378906 2043.390625 -159.9375 2046.9375 -161.21875 C 2055.453125 -164.625 2064.113281 -167.320312 2073.621094 -168.03125 C 2087.8125 -169.167969 2101.15625 -173.992188 2114.636719 -177.542969 C 2122.871094 -179.816406 2145.152344 -183.648438 2153.382812 -183.933594 C 2161.046875 -184.21875 2168.851562 -184.644531 2176.660156 -185.355469 C 2181.058594 -185.78125 2185.316406 -186.347656 2189.714844 -185.636719 C 2191.5625 -185.496094 2193.832031 -185.214844 2195.394531 -185.921875 C 2200.21875 -187.910156 2204.902344 -187.199219 2209.726562 -187.484375 C 2217.105469 -188.054688 2224.203125 -188.054688 2231.015625 -184.648438 C 2233.144531 -183.65625 2235.558594 -183.230469 2238.113281 -182.945312 C 2254.148438 -180.535156 2267.0625 -172.160156 2278.558594 -161.234375 C 2289.203125 -151.160156 2298.851562 -140.371094 2306.65625 -128.027344 C 2311.90625 -119.652344 2316.023438 -111.28125 2318.71875 -101.769531 C 2321.414062 -91.980469 2323.683594 -82.042969 2325.246094 -71.96875 C 2325.953125 -68.136719 2326.664062 -64.304688 2327.796875 -60.613281 C 2332.054688 -44.433594 2333.613281 -28.113281 2332.761719 -11.652344 C 2332.476562 -4.839844 2332.191406 1.972656 2332.335938 8.644531 C 2332.902344 24.824219 2336.875 40.152344 2342.976562 55.050781 C 2349.644531 71.089844 2356.457031 87.269531 2361.136719 104.15625 C 2363.550781 112.53125 2366.671875 120.761719 2370.929688 128.425781 C 2374.335938 134.386719 2377.882812 139.917969 2382.140625 145.3125 C 2394.34375 161.492188 2406.691406 177.8125 2416.480469 195.835938 C 2420.738281 203.5 2425.277344 210.878906 2426.839844 219.820312 C 2427.265625 222.230469 2428.402344 224.503906 2429.394531 226.632812 C 2433.082031 235.144531 2436.773438 243.378906 2437.765625 252.886719 C 2438.191406 256.152344 2439.894531 259.273438 2440.886719 262.535156 C 2444.574219 274.457031 2444.574219 286.378906 2440.316406 298.300781 C 2436.625 308.519531 2431.515625 317.605469 2424.5625 325.976562 C 2417.605469 334.351562 2409.65625 341.164062 2400.289062 346.558594 C 2394.898438 349.679688 2389.363281 352.660156 2384.109375 356.210938 C 2378.574219 360.042969 2372.1875 362.457031 2365.375 363.875 C 2349.195312 367.285156 2333.585938 372.394531 2318.257812 378.355469 C 2306.617188 382.898438 2294.414062 386.304688 2282.347656 390.421875 C 2277.664062 391.984375 2273.125 393.6875 2268.722656 395.25 C 2256.375 399.648438 2244.027344 404.050781 2231.539062 408.023438 C 2225.4375 409.871094 2219.191406 411.003906 2212.945312 411.289062 C 2208.40625 411.574219 2204.289062 412.285156 2200.316406 413.988281 C 2189.953125 418.386719 2179.027344 420.234375 2167.671875 419.949219 C 2163.839844 419.808594 2159.867188 420.375 2156.035156 421.085938 C 2145.390625 423.214844 2135.03125 423.644531 2124.246094 421.089844 C 2113.882812 418.675781 2103.238281 417.96875 2092.878906 414.988281 C 2086.351562 413.285156 2079.824219 411.582031 2073.578125 408.746094 C 2067.476562 405.765625 2060.949219 404.0625 2054.277344 402.503906 C 2042.640625 399.664062 2031.996094 394.980469 2023.054688 387.175781 Z M 2023.054688 387.175781 "/>
</g>
</g>
</g>
<use xlink:href="#surface8" transform="matrix(1,0,0,1,1230,637)" mask="url(#mask1)"/>
</g>
</svg>
