<?xml version="1.0" encoding="UTF-8"?>
<svg xmlns="http://www.w3.org/2000/svg" xmlns:xlink="http://www.w3.org/1999/xlink" width="1680pt" height="944.999993pt" viewBox="0 0 1680 944.999993" version="1.2">
<defs>
<clipPath id="clip1">
  <path d="M 0 0 L 440 0 L 440 793 L 0 793 Z M 0 0 "/>
</clipPath>
<clipPath id="clip2">
  <path d="M -469.195312 1.445312 L 376.554688 -171.5 L 543.1875 643.386719 L -302.558594 816.332031 Z M -469.195312 1.445312 "/>
</clipPath>
<clipPath id="clip3">
  <path d="M -469.195312 1.445312 L 376.554688 -171.5 L 543.1875 643.386719 L -302.558594 816.332031 Z M -469.195312 1.445312 "/>
</clipPath>
<filter id="alpha" filterUnits="objectBoundingBox" x="0%" y="0%" width="100%" height="100%">
  <feColorMatrix type="matrix" in="SourceGraphic" values="0 0 0 0 1 0 0 0 0 1 0 0 0 0 1 0 0 0 1 0"/>
</filter>
<mask id="mask0">
  <g filter="url(#alpha)">
<rect x="0" y="0" width="1680" height="944.999993" style="fill:rgb(0%,0%,0%);fill-opacity:0.8196;stroke:none;"/>
  </g>
</mask>
<clipPath id="clip5">
  <path d="M 21 0 L 756 0 L 756 242 L 21 242 Z M 21 0 "/>
</clipPath>
<clipPath id="clip6">
  <path d="M 654.839844 -451.097656 L 806.65625 107.644531 L 100.265625 299.578125 L -51.550781 -259.164062 Z M 654.839844 -451.097656 "/>
</clipPath>
<clipPath id="clip7">
  <path d="M 654.839844 -451.097656 L 806.65625 107.644531 L 100.265625 299.578125 L -51.550781 -259.164062 Z M 654.839844 -451.097656 "/>
</clipPath>
<clipPath id="clip4">
  <rect x="0" y="0" width="807" height="301"/>
</clipPath>
<g id="surface5" clip-path="url(#clip4)">
<g clip-path="url(#clip5)" clip-rule="nonzero">
<g clip-path="url(#clip6)" clip-rule="nonzero">
<g clip-path="url(#clip7)" clip-rule="nonzero">
<path style=" stroke:none;fill-rule:nonzero;fill:rgb(12.159729%,39.608765%,39.99939%);fill-opacity:1;" d="M 403.855469 216.46875 C 373.753906 225.113281 343.378906 232.746094 312.425781 237.121094 C 287.347656 240.828125 261.917969 243.234375 236.625 239.859375 C 212.605469 236.601562 188.8125 231.886719 166.519531 222.417969 C 149.65625 215.199219 134.011719 205.628906 122.765625 190.515625 C 119.890625 186.796875 117.015625 183.074219 114.140625 179.351562 C 103.507812 165.9375 92.523438 152.925781 83.824219 138.054688 C 78.707031 129.507812 72.65625 121.523438 66.855469 113.320312 C 46.117188 83.859375 33.242188 51.332031 28.625 15.476562 C 26.695312 0.941406 24.289062 -13.625 22.316406 -28.304688 C 21.507812 -34.140625 21.132812 -40.09375 21.414062 -45.917969 C 21.949219 -57.085938 20.304688 -68.285156 23.0625 -79.28125 C 27.230469 -95.941406 31.4375 -112.457031 35.132812 -129.144531 C 39.5 -148.5 48.898438 -165.339844 58.953125 -182.046875 C 70.480469 -201.328125 84.703125 -218.699219 97.78125 -236.851562 C 103.652344 -244.96875 109.886719 -252.871094 115.386719 -261.199219 C 124.769531 -275.238281 137.082031 -286.503906 152.015625 -293.820312 C 170.515625 -302.886719 188.371094 -313.171875 206.789062 -322.523438 C 225.746094 -332.179688 245.398438 -339.847656 266.3125 -344.597656 C 283.570312 -348.511719 300.710938 -352.855469 318.019531 -356.007812 C 332.542969 -358.554688 346.777344 -362.734375 361.222656 -365.574219 C 382.621094 -369.679688 403.847656 -374.980469 425.011719 -379.953125 C 442.375 -384.050781 459.65625 -386.726562 477.554688 -386 C 489.917969 -385.632812 502.234375 -386.03125 514.652344 -386.609375 C 532.589844 -387.445312 549.882812 -384.378906 566.960938 -379.238281 C 576.105469 -376.441406 583.8125 -370.929688 592.046875 -366.335938 C 594.644531 -361.917969 598.96875 -360.296875 603.433594 -358.714844 C 606.179688 -357.753906 608.6875 -355.949219 611.222656 -354.621094 C 612.695312 -353.777344 614.597656 -353.050781 615.570312 -351.761719 C 621.671875 -343.019531 630.273438 -336.503906 637.269531 -328.46875 C 644.265625 -320.429688 651.226562 -312.539062 657.972656 -304.277344 C 664.011719 -296.914062 668.785156 -289.050781 673.140625 -280.449219 C 681.023438 -264.582031 689.011719 -248.894531 696.460938 -232.90625 C 699.886719 -225.449219 704.136719 -218.375 707.453125 -210.738281 C 714.652344 -194.527344 719.144531 -177.425781 725.082031 -160.714844 C 725.972656 -158.007812 726.035156 -154.917969 726.636719 -152.132812 C 727.566406 -147.570312 728.101562 -142.746094 729.464844 -138.304688 C 732.042969 -129.375 735.675781 -120.582031 733.839844 -110.765625 C 733.246094 -107.808594 736.136719 -105.179688 739.328125 -105.425781 C 742.523438 -105.671875 744.925781 -105.394531 746.804688 -102.488281 C 750.1875 -96.886719 752.273438 -90.929688 753.710938 -84.488281 C 758.007812 -66.402344 753.773438 -49.410156 747.933594 -32.609375 C 744.601562 -23.164062 741.453125 -13.613281 740.746094 -3.636719 C 740.601562 -1.890625 740.308594 -0.101562 739.652344 1.472656 C 734.160156 13.835938 728.667969 26.195312 720.457031 37.125 C 718.261719 39.894531 715.695312 42.453125 713.054688 44.726562 C 700.941406 55.003906 689.273438 65.78125 678.277344 77.3125 C 673.4375 82.351562 667.78125 86.683594 662.390625 91.410156 C 659.246094 94.128906 655.839844 96.449219 652.882812 99.273438 C 637.375 114.199219 619.164062 124.894531 600.285156 134.835938 C 588.886719 140.882812 577.039062 146.433594 565.640625 152.480469 C 558.84375 156.035156 552.007812 159.445312 545.773438 163.933594 C 532.769531 173.210938 518.480469 180.046875 503.585938 185.800781 C 488.730469 191.699219 474.136719 197.996094 458.8125 202.160156 C 449.703125 204.632812 440.515625 206.820312 431.40625 209.292969 C 422.035156 211.375 412.964844 213.996094 403.855469 216.46875 Z M 403.855469 216.46875 "/>
</g>
</g>
</g>
</g>
<clipPath id="clip8">
  <path d="M 1128 146 L 1680 146 L 1680 776 L 1128 776 Z M 1128 146 "/>
</clipPath>
<clipPath id="clip9">
  <path d="M 1782.320312 0.00390625 L 2272.34375 490.027344 L 1577.613281 1184.761719 L 1087.585938 694.734375 Z M 1782.320312 0.00390625 "/>
</clipPath>
<clipPath id="clip10">
  <path d="M 1782.320312 0.00390625 L 2272.34375 490.027344 L 1577.613281 1184.761719 L 1087.585938 694.734375 Z M 1782.320312 0.00390625 "/>
</clipPath>
<mask id="mask1">
  <g filter="url(#alpha)">
<rect x="0" y="0" width="1680" height="944.999993" style="fill:rgb(0%,0%,0%);fill-opacity:0.9176;stroke:none;"/>
  </g>
</mask>
<clipPath id="clip12">
  <path d="M 9 13 L 469 13 L 469 371 L 9 371 Z M 9 13 "/>
</clipPath>
<clipPath id="clip13">
  <path d="M 15.523438 746.167969 L -6.445312 16.746094 L 695.988281 -4.410156 L 717.957031 725.011719 Z M 15.523438 746.167969 "/>
</clipPath>
<clipPath id="clip14">
  <path d="M 15.523438 746.167969 L -6.445312 16.746094 L 695.988281 -4.410156 L 717.957031 725.011719 Z M 15.523438 746.167969 "/>
</clipPath>
<clipPath id="clip11">
  <rect x="0" y="0" width="469" height="371"/>
</clipPath>
<g id="surface8" clip-path="url(#clip11)">
<g clip-path="url(#clip12)" clip-rule="nonzero">
<g clip-path="url(#clip13)" clip-rule="nonzero">
<g clip-path="url(#clip14)" clip-rule="nonzero">
<path style=" stroke:none;fill-rule:nonzero;fill:rgb(78.039551%,59.999084%,54.899597%);fill-opacity:1;" d="M 713.984375 625.726562 C 713.472656 636.703125 708.761719 657.5 691.328125 670.8125 C 669.5 687.347656 646.503906 702.371094 622.761719 716.011719 C 604.40625 726.542969 583.113281 728.308594 562.386719 725.417969 C 507.402344 718.082031 453.945312 705.5 406.398438 674.613281 C 383.335938 659.570312 360.269531 644.25 336.941406 629.636719 C 310.609375 613.285156 284.417969 596.792969 257.289062 581.871094 C 202.3125 551.492188 154.417969 513.730469 118.5625 460.855469 C 93.578125 423.808594 64.050781 389.851562 36.449219 354.570312 C 8.699219 319.015625 1.503906 280.589844 18.761719 238.199219 C 27.777344 215.867188 34.226562 192.207031 45.8125 171.34375 C 57.40625 150.621094 71.964844 130.511719 88.882812 114.121094 C 131.308594 72.800781 182.832031 44.550781 237.191406 21.835938 C 267.003906 9.277344 298.574219 13.101562 328.242188 23.730469 C 360.886719 35.394531 390.625 53.046875 415.117188 78.304688 C 460.625 125.410156 507.085938 171.363281 551.089844 219.777344 C 593.0625 266.007812 623.070312 320.605469 648.925781 377.15625 C 680.785156 446.589844 696.921875 520.855469 712.640625 595.136719 C 714.234375 601.410156 713.464844 608.460938 713.984375 625.726562 Z M 713.984375 625.726562 "/>
</g>
</g>
</g>
</g>
<clipPath id="clip15">
  <path d="M 0 0 L 460 0 L 460 459 L 0 459 Z M 0 0 "/>
</clipPath>
<clipPath id="clip16">
  <path d="M -294.328125 -362.628906 L 494.96875 319.5625 L -60.691406 962.460938 L -849.984375 280.269531 Z M -294.328125 -362.628906 "/>
</clipPath>
<clipPath id="clip17">
  <path d="M -373.617188 -431.160156 L 495.117188 319.691406 L -60.539062 962.589844 L -929.277344 211.738281 Z M -373.617188 -431.160156 "/>
</clipPath>
<clipPath id="clip18">
  <path d="M 1385 125.238281 L 1680 125.238281 L 1680 569 L 1385 569 Z M 1385 125.238281 "/>
</clipPath>
</defs>
<g id="surface1">
<g clip-path="url(#clip1)" clip-rule="nonzero">
<g clip-path="url(#clip2)" clip-rule="nonzero">
<g clip-path="url(#clip3)" clip-rule="nonzero">
<path style=" stroke:none;fill-rule:nonzero;fill:rgb(78.039551%,59.999084%,54.899597%);fill-opacity:1;" d="M -187.636719 791.648438 C -200.535156 793.265625 -225.726562 791.972656 -244.765625 774.335938 C -268.449219 752.21875 -290.609375 728.433594 -311.308594 703.503906 C -327.292969 684.222656 -333.652344 659.75 -334.476562 634.992188 C -337.039062 569.390625 -333.175781 504.507812 -306.789062 442.820312 C -293.917969 412.890625 -280.71875 382.894531 -268.402344 352.738281 C -254.667969 318.730469 -240.738281 284.851562 -228.828125 250.203125 C -204.53125 179.957031 -170.199219 116.472656 -115.816406 63.980469 C -77.6875 27.359375 -44.078125 -13.933594 -8.535156 -53.246094 C 27.300781 -92.789062 70.628906 -108.941406 123.527344 -97.378906 C 151.378906 -91.375 180.261719 -88.632812 206.921875 -79.332031 C 233.417969 -70 259.800781 -57.082031 282.320312 -40.660156 C 339.058594 0.46875 382.398438 54.847656 419.863281 113.652344 C 440.527344 145.882812 442.445312 183.46875 436.054688 220.214844 C 429.0625 260.640625 414.496094 298.886719 390.007812 332.550781 C 344.304688 395.136719 300.132812 458.59375 252.59375 519.691406 C 207.195312 577.976562 149.625 624 88.9375 665.574219 C 14.445312 716.75 -68.855469 750.570312 -152.253906 783.902344 C -159.246094 787.027344 -167.617188 787.550781 -187.636719 791.648438 Z M -187.636719 791.648438 "/>
</g>
</g>
</g>
<use xlink:href="#surface5" transform="matrix(1,0,0,1,0,-0.000000000000049249)" mask="url(#mask0)"/>
<g clip-path="url(#clip8)" clip-rule="nonzero">
<g clip-path="url(#clip9)" clip-rule="nonzero">
<g clip-path="url(#clip10)" clip-rule="nonzero">
<path style=" stroke:none;fill-rule:nonzero;fill:rgb(12.159729%,39.608765%,39.99939%);fill-opacity:1;" d="M 1699.046875 721.601562 C 1687.550781 712.09375 1674.066406 707.125 1659.59375 703.722656 C 1641.140625 699.464844 1622.835938 695.351562 1604.527344 690.386719 C 1592.320312 686.980469 1580.117188 683.859375 1567.628906 681.871094 C 1550.878906 679.320312 1533.851562 677.902344 1517.101562 676.484375 C 1509.4375 675.914062 1501.632812 676.058594 1493.828125 676.484375 C 1483.609375 677.054688 1473.53125 678.046875 1463.457031 679.042969 C 1461.183594 679.324219 1458.773438 680.320312 1456.5 681.171875 C 1443.726562 685.714844 1431.949219 692.667969 1419.742188 698.628906 C 1413.640625 701.609375 1407.535156 704.875 1402.285156 708.992188 C 1394.621094 715.238281 1385.960938 719.355469 1377.164062 723.613281 C 1367.796875 727.871094 1358.996094 732.695312 1350.195312 738.089844 C 1338.273438 745.472656 1325.785156 752 1312.445312 756.828125 C 1305.632812 759.382812 1298.820312 762.222656 1292.007812 764.492188 C 1286.472656 766.335938 1280.792969 767.757812 1275.117188 769.175781 C 1270.433594 770.453125 1265.609375 771.304688 1261.066406 772.726562 C 1250.707031 776.558594 1240.0625 776.417969 1229.417969 775.140625 C 1217.777344 773.722656 1206.566406 771.59375 1195.070312 769.75 C 1194.078125 769.609375 1193.226562 769.324219 1192.375 769.042969 C 1183.292969 765.917969 1173.925781 762.796875 1164.84375 759.675781 C 1160.300781 757.972656 1155.761719 756.269531 1151.359375 754.425781 C 1145.824219 752.015625 1141.425781 748.183594 1138.871094 742.789062 C 1137.027344 738.957031 1135.324219 734.699219 1133.90625 730.726562 C 1131.636719 723.914062 1134.046875 716.109375 1130.074219 709.578125 C 1129.648438 702.910156 1128.941406 695.957031 1128.800781 689.285156 C 1128.660156 677.789062 1131.070312 667.144531 1138.027344 657.636719 C 1140.441406 654.085938 1142.996094 650.398438 1145.550781 646.992188 C 1146.96875 645.003906 1148.386719 643.015625 1150.375 641.597656 C 1157.472656 636.488281 1163.71875 630.242188 1169.253906 623.570312 C 1172.089844 620.164062 1176.207031 618.320312 1180.179688 616.617188 C 1184.4375 614.914062 1187.277344 612.074219 1190.117188 608.667969 C 1195.9375 601.996094 1200.761719 594.902344 1205.445312 587.378906 C 1211.265625 578.4375 1217.085938 569.496094 1223.472656 560.835938 C 1229.007812 553.316406 1235.535156 546.785156 1243.199219 541.675781 C 1257.109375 532.59375 1268.324219 520.242188 1280.101562 508.746094 C 1288.476562 500.65625 1296.851562 492.566406 1306.929688 486.464844 C 1323.390625 476.527344 1340.140625 466.589844 1358.449219 459.921875 C 1369.234375 455.945312 1379.453125 449.984375 1389.105469 443.453125 C 1405.144531 432.523438 1422.175781 423.15625 1439.207031 414.074219 C 1443.890625 411.660156 1449 409.671875 1453.683594 407.257812 C 1459.644531 404.136719 1465.746094 400.871094 1471.140625 396.898438 C 1476.675781 393.066406 1481.5 388.238281 1486.894531 383.980469 C 1490.726562 381 1494.558594 378.019531 1498.390625 375.039062 C 1499.953125 373.761719 1501.230469 372.484375 1502.792969 371.207031 C 1506.625 367.660156 1510.738281 364.109375 1514.570312 360.5625 C 1517.125 358.292969 1519.824219 356.160156 1521.667969 353.464844 C 1525.074219 348.640625 1529.617188 344.949219 1534.015625 341.117188 C 1546.933594 329.335938 1559.988281 317.980469 1574.183594 307.476562 C 1576.171875 306.058594 1578.300781 304.496094 1579.433594 302.511719 C 1584.6875 292.433594 1594.480469 286.046875 1599.589844 276.113281 C 1601.152344 273.128906 1604.132812 271 1606.402344 268.445312 C 1610.660156 263.90625 1614.917969 259.078125 1619.175781 254.539062 C 1622.867188 250.5625 1626.984375 247.300781 1630.390625 243.039062 C 1637.0625 234.097656 1646.570312 227.710938 1653.667969 219.195312 C 1657.640625 214.371094 1663.035156 210.679688 1668.003906 206.847656 C 1673.820312 202.449219 1679.925781 198.613281 1685.601562 194.074219 C 1688.867188 191.375 1693.125 189.957031 1696.957031 187.828125 C 1698.660156 186.976562 1700.929688 186.125 1701.640625 184.5625 C 1704.050781 180.445312 1708.167969 178.886719 1712.140625 177.464844 C 1715.832031 176.046875 1719.378906 174.484375 1722.929688 173.207031 C 1731.445312 169.800781 1740.101562 167.105469 1749.609375 166.394531 C 1763.804688 165.257812 1777.144531 160.429688 1790.628906 156.882812 C 1798.859375 154.609375 1821.140625 150.777344 1829.371094 150.492188 C 1837.035156 150.207031 1844.84375 149.78125 1852.648438 149.070312 C 1857.046875 148.644531 1861.304688 148.078125 1865.707031 148.785156 C 1867.550781 148.929688 1869.820312 149.210938 1871.382812 148.503906 C 1876.207031 146.515625 1880.890625 147.222656 1885.71875 146.941406 C 1893.097656 146.371094 1900.191406 146.371094 1907.003906 149.777344 C 1909.132812 150.769531 1911.546875 151.195312 1914.101562 151.480469 C 1930.136719 153.890625 1943.050781 162.261719 1954.546875 173.191406 C 1965.191406 183.265625 1974.839844 194.050781 1982.644531 206.398438 C 1987.898438 214.773438 1992.011719 223.144531 1994.707031 232.652344 C 1997.402344 242.445312 1999.671875 252.378906 2001.234375 262.457031 C 2001.941406 266.289062 2002.652344 270.121094 2003.789062 273.8125 C 2008.042969 289.988281 2009.605469 306.3125 2008.75 322.773438 C 2008.46875 329.585938 2008.183594 336.398438 2008.324219 343.070312 C 2008.890625 359.25 2012.863281 374.574219 2018.964844 389.476562 C 2025.632812 405.515625 2032.445312 421.691406 2037.128906 438.582031 C 2039.539062 446.953125 2042.660156 455.1875 2046.917969 462.847656 C 2050.324219 468.808594 2053.871094 474.34375 2058.128906 479.738281 C 2070.332031 495.914062 2082.679688 512.234375 2092.472656 530.257812 C 2096.726562 537.921875 2101.269531 545.300781 2102.828125 554.242188 C 2103.253906 556.65625 2104.390625 558.925781 2105.382812 561.054688 C 2109.074219 569.570312 2112.761719 577.800781 2113.753906 587.3125 C 2114.179688 590.574219 2115.882812 593.699219 2116.875 596.960938 C 2120.566406 608.882812 2120.566406 620.804688 2116.304688 632.726562 C 2112.617188 642.945312 2107.503906 652.027344 2100.550781 660.402344 C 2093.597656 668.777344 2085.648438 675.589844 2076.28125 680.984375 C 2070.886719 684.105469 2065.351562 687.085938 2060.101562 690.636719 C 2054.566406 694.46875 2048.179688 696.882812 2041.367188 698.300781 C 2025.1875 701.707031 2009.574219 706.816406 1994.246094 712.78125 C 1982.609375 717.324219 1970.402344 720.730469 1958.339844 724.847656 C 1953.65625 726.40625 1949.113281 728.113281 1944.714844 729.671875 C 1932.367188 734.074219 1920.019531 738.472656 1907.527344 742.449219 C 1901.425781 744.292969 1895.179688 745.429688 1888.9375 745.714844 C 1884.394531 746 1880.28125 746.707031 1876.304688 748.410156 C 1865.945312 752.8125 1855.015625 754.65625 1843.664062 754.375 C 1839.832031 754.234375 1835.855469 754.800781 1832.023438 755.511719 C 1821.378906 757.640625 1811.019531 758.066406 1800.234375 755.511719 C 1789.875 753.101562 1779.230469 752.394531 1768.871094 749.414062 C 1762.339844 747.710938 1755.8125 746.007812 1749.566406 743.171875 C 1743.464844 740.191406 1736.9375 738.488281 1730.265625 736.925781 C 1718.628906 734.089844 1707.984375 729.40625 1699.046875 721.601562 Z M 1699.046875 721.601562 "/>
</g>
</g>
</g>
<use xlink:href="#surface8" transform="matrix(1,0,0,1,1211,574)" mask="url(#mask1)"/>
<g clip-path="url(#clip15)" clip-rule="nonzero">
<g clip-path="url(#clip16)" clip-rule="nonzero">
<g clip-path="url(#clip17)" clip-rule="nonzero">
<path style=" stroke:none;fill-rule:nonzero;fill:rgb(100%,100%,100%);fill-opacity:1;" d="M -664.621094 -70.046875 C -667.816406 -73.097656 -670.101562 -76.53125 -670.5625 -80.722656 C -671.070312 -85.535156 -665.972656 -90.757812 -661.914062 -88.707031 C -655.558594 -85.257812 -649.019531 -85.734375 -642.273438 -85.441406 C -640.714844 -85.554688 -639.136719 -85.359375 -637.703125 -84.992188 C -623.164062 -80.886719 -607.886719 -81.6875 -593.058594 -77.917969 C -589.066406 -76.800781 -584.707031 -77.117188 -580.78125 -76.933594 C -559.289062 -76.152344 -538.277344 -79.871094 -517.714844 -85.4375 C -515.101562 -86.097656 -512.847656 -87.355469 -510.214844 -87.703125 C -492.46875 -88.996094 -475.921875 -95.992188 -458.390625 -98.050781 C -454.820312 -98.464844 -451.320312 -99.816406 -447.773438 -100.542969 C -441.136719 -101.808594 -434.667969 -103.21875 -428.03125 -104.484375 C -426.019531 -104.789062 -424.007812 -105.089844 -422.019531 -105.707031 C -408.359375 -109.359375 -394.582031 -111.457031 -380.644531 -113.414062 C -371.972656 -114.667969 -363.179688 -116.40625 -354.460938 -117.039062 C -329.558594 -118.855469 -305.023438 -123.613281 -280.210938 -126.671875 C -264.714844 -128.738281 -249.148438 -129.871094 -233.539062 -130.382812 C -213.714844 -131.042969 -194.238281 -127.925781 -175.109375 -123.058594 C -174.628906 -122.9375 -174.152344 -122.816406 -173.671875 -122.691406 C -156.183594 -114.578125 -138.835938 -106.296875 -125.851562 -91.28125 C -123.46875 -88.636719 -121.519531 -85.492188 -119.28125 -82.683594 C -116.6875 -79.273438 -115.457031 -75.292969 -114.851562 -71.269531 C -112.609375 -57.664062 -119.242188 -45.601562 -131.453125 -39.234375 C -137.019531 -36.167969 -142.824219 -34.183594 -149.191406 -33.5625 C -152.761719 -33.144531 -156.496094 -32.875 -159.875 -32 C -166.777344 -30.089844 -173.550781 -30.691406 -179.691406 -33.375 C -189.707031 -37.652344 -200.515625 -39.996094 -209.972656 -45.253906 C -214.871094 -48.027344 -220.730469 -49.007812 -226.015625 -50.65625 C -238.972656 -54.566406 -252.054688 -57.992188 -265.722656 -58.71875 C -266.820312 -58.796875 -267.898438 -58.5625 -268.855469 -58.804688 C -280.792969 -61.535156 -292.597656 -60.363281 -304.472656 -60.125 C -322.90625 -59.71875 -340.472656 -55.9375 -357.496094 -49.0625 C -360.542969 -47.902344 -363.253906 -46.453125 -366.152344 -45.460938 C -377.179688 -42.15625 -384.753906 -34.40625 -392.160156 -26.511719 C -397.976562 -20.453125 -398.65625 -12.582031 -398.234375 -4.632812 C -398.1875 -4.007812 -398 -3.554688 -397.808594 -3.097656 C -394.441406 4.480469 -390.449219 12.015625 -384.847656 18.023438 C -377.390625 25.929688 -368.605469 32.644531 -358.980469 38.046875 C -350.671875 42.605469 -341.847656 45.558594 -332.152344 45.480469 C -324.324219 45.535156 -316.496094 45.59375 -308.691406 45.335938 C -292.148438 44.757812 -275.503906 43.390625 -258.972656 40.464844 C -241.367188 37.304688 -224.683594 32.179688 -208.847656 23.984375 C -196.324219 17.59375 -183.234375 12.574219 -170.5 6.953125 C -167.621094 5.648438 -164.699219 4.964844 -161.628906 4.117188 C -152.136719 1.234375 -142.625 -1.335938 -133.296875 -4.363281 C -118.003906 -9.230469 -102.734375 -14.414062 -87.015625 -17.746094 C -84.546875 -18.238281 -81.9375 -18.898438 -79.492188 -19.703125 C -62.277344 -26.121094 -44.097656 -27.914062 -26.15625 -30.785156 C -19.042969 -31.929688 -11.625 -31.0625 -4.417969 -30.960938 C 24.570312 -30.410156 52.21875 -24.597656 79.007812 -13.40625 C 82.878906 -11.808594 86.609375 -10.046875 90.457031 -8.761719 C 111.449219 -1.996094 130.242188 8.996094 147.925781 21.945312 C 164.777344 34.175781 180.472656 47.742188 195.882812 61.644531 C 198.21875 63.664062 200.414062 65.851562 202.171875 68.539062 C 209.859375 79.558594 217.714844 90.722656 223 103.167969 C 226.558594 111.203125 229.972656 119.40625 233.074219 127.628906 C 238.070312 140.410156 239.523438 153.917969 240.1875 167.324219 C 240.382812 172.164062 238.640625 176.199219 235.320312 180.042969 C 230.558594 185.550781 225.113281 188.140625 217.597656 188.0625 C 201.320312 187.992188 185.9375 185.203125 171.128906 177.359375 C 158.109375 170.484375 147.378906 160.625 136.089844 151.746094 C 126.640625 144.453125 118.058594 136.160156 108.464844 129.035156 C 94.238281 118.492188 81.746094 105.945312 68.964844 93.730469 C 66.4375 91.253906 63.886719 88.464844 60.929688 86.492188 C 42.976562 74.183594 25.722656 60.730469 6.785156 49.90625 C -1.382812 45.179688 -10.203125 42.222656 -18.78125 38.308594 C -20.574219 37.34375 -22.773438 37.191406 -24.832031 36.875 C -37.132812 35.578125 -49.675781 35.238281 -62.015625 37.703125 C -74.808594 40.355469 -86.820312 45.140625 -99.023438 49.472656 C -101.46875 50.277344 -103.535156 51.992188 -105.792969 53.253906 C -109.847656 55.582031 -113.902344 57.910156 -117.957031 60.242188 C -130.289062 67.085938 -141.242188 75.707031 -150.480469 86.394531 C -158.5625 95.746094 -167.289062 104.828125 -174.871094 114.613281 C -187.722656 131.511719 -199.910156 148.984375 -210.449219 167.589844 C -213.367188 172.652344 -216.472656 177.261719 -220.726562 181.171875 C -226.445312 186.4375 -232.164062 191.703125 -238.410156 196.226562 C -247.628906 202.84375 -257.371094 208.71875 -267.261719 214.757812 C -272.203125 217.777344 -277.359375 220.03125 -282.492188 222.597656 C -285.828125 224.089844 -288.996094 225.730469 -292.519531 226.769531 C -304.433594 230.765625 -316.203125 234.597656 -327.972656 238.425781 C -331.496094 239.464844 -335.207031 240.046875 -338.375 241.6875 C -348.953125 246.839844 -360.515625 247.054688 -371.824219 248.660156 C -372.902344 248.894531 -374.003906 248.820312 -374.9375 248.886719 C -390.492188 247.984375 -406.15625 249.910156 -421.511719 251.808594 C -446.78125 255.058594 -471.34375 261.539062 -495.605469 270.035156 C -500.496094 271.644531 -505.363281 273.5625 -510.398438 275.335938 C -513.300781 276.332031 -516.367188 277.179688 -519.078125 278.628906 C -537.3125 288.25 -556.949219 295.78125 -574.613281 306.769531 C -582.101562 311.382812 -589.234375 316.597656 -595.675781 322.699219 C -600.9375 327.777344 -605.867188 333.144531 -611.132812 338.222656 C -621.660156 348.375 -630.539062 359.664062 -638.230469 372.273438 C -643.84375 381.132812 -647.6875 390.644531 -651.679688 400.324219 C -654.75 407.585938 -655.59375 415.316406 -653.929688 423.175781 C -653.625 425.1875 -653.15625 427.34375 -652.851562 429.355469 C -652.210938 436.039062 -648.179688 439.8125 -642.152344 440.9375 C -632.941406 442.773438 -623.613281 444.125 -614.316406 442.824219 C -609.671875 442.171875 -605.257812 440.441406 -601.917969 436.914062 C -591.3125 425.65625 -579.230469 415.390625 -570.796875 402.257812 C -569.109375 399.628906 -566.945312 397.125 -564.566406 395.386719 C -556.378906 389.628906 -550.21875 381.824219 -543.203125 375.054688 C -533.996094 366.089844 -524.644531 356.960938 -516.296875 346.964844 C -511.824219 341.789062 -506.824219 337.355469 -500.28125 334.84375 C -498.914062 334.273438 -497.566406 333.394531 -496.390625 332.371094 C -483.0625 322.011719 -467.167969 316.785156 -451.820312 310.503906 C -440.082031 308.398438 -429.046875 303.054688 -417.878906 299.582031 C -412.363281 297.929688 -406.828125 296.585938 -401.269531 295.558594 C -390.632812 293.375 -379.828125 291.335938 -369.167969 289.464844 C -362.988281 288.386719 -356.925781 287.789062 -350.703125 287.335938 C -337.792969 286.242188 -324.863281 285.457031 -311.8125 284.191406 C -294.089844 282.589844 -277.003906 278.683594 -259.707031 275.546875 C -249.980469 273.746094 -240.890625 269.640625 -231.375 267.070312 C -221.863281 264.5 -213.152344 259.484375 -204.75 254.488281 C -203.40625 253.609375 -202.0625 252.730469 -200.695312 252.160156 C -195.828125 250.242188 -190.75 249.089844 -186.214844 246.882812 C -181.515625 244.816406 -177.382812 241.386719 -172.660156 239.636719 C -165.511719 236.769531 -158.222656 233.734375 -151.835938 229.042969 C -148.859375 226.949219 -145.714844 225 -142.191406 223.960938 C -132.699219 221.078125 -123.941406 216.683594 -115.734375 211.234375 C -113.1875 209.644531 -110.332031 208.027344 -107.433594 207.03125 C -97.507812 203.648438 -88.464844 198.921875 -79.085938 194.484375 C -64.117188 187.292969 -48.601562 181.15625 -31.816406 179.621094 C -20.691406 175.523438 -9.300781 177.199219 2.183594 178.082031 C 13.050781 179.011719 23.960938 180.566406 33.707031 185.488281 C 46.910156 188.441406 56.761719 196.957031 67.191406 204.800781 C 68.359375 205.8125 69.671875 206.65625 70.695312 207.832031 C 82.253906 220.449219 95.855469 231.039062 108.304688 242.960938 C 111.664062 246.160156 115.027344 249.355469 118.101562 252.890625 C 127.535156 264.25 138.386719 273.632812 150.273438 282.15625 C 154.902344 285.574219 159.246094 289.324219 163.707031 292.597656 C 169.984375 297.148438 176.261719 301.699219 182.828125 305.917969 C 197.753906 315.3125 212.53125 324.878906 228.03125 333.609375 C 241.09375 341.105469 253.316406 349.917969 268.019531 354.167969 C 269.933594 354.652344 271.746094 355.929688 273.539062 356.894531 C 279.414062 360.222656 285.675781 362.425781 292.230469 364.296875 C 298.78125 366.167969 305.164062 367.894531 311.472656 370.71875 C 317.136719 373.28125 323.332031 374.550781 329.625 375.03125 C 338.433594 375.640625 346.996094 377.207031 355.484375 379.875 C 365.261719 383.078125 375.203125 382.039062 384.691406 379.160156 C 395.261719 376.042969 405.289062 371.871094 415.523438 368.464844 C 422.09375 366.265625 427.613281 362.574219 432.945312 358.433594 C 437.097656 355.3125 440.394531 351.160156 442.378906 346.167969 C 443.566406 343.105469 443.960938 339.949219 441.289062 337.640625 C 438.261719 334.730469 435.976562 331.296875 434.292969 327.507812 C 433.132812 324.464844 432.761719 321.515625 433.160156 318.359375 C 433.652344 314.410156 435.652344 311.761719 438.605469 309.355469 C 441.726562 307.09375 446.277344 307.230469 448.492188 309.730469 C 449.515625 310.910156 450.683594 311.917969 451.566406 313.261719 C 457.316406 323.484375 460.597656 334.199219 458.492188 346.089844 C 457.851562 350.203125 456.902344 354.339844 455.785156 358.335938 C 454.058594 364.71875 450.515625 369.828125 444.785156 372.75 C 436.195312 377.285156 427.863281 383.210938 418.136719 385.015625 C 416.125 385.320312 413.988281 386.101562 412.355469 387.316406 C 405.347656 392.050781 396.375 391.296875 389.007812 395.429688 C 382.324219 396.074219 375.644531 396.71875 368.792969 397.214844 C 367.238281 397.328125 365.679688 397.441406 364.246094 397.078125 C 356.738281 394.964844 349.03125 394.429688 341.304688 393.585938 C 334.050781 392.859375 327.046875 391.179688 319.894531 389.667969 C 315.757812 388.714844 311.90625 387.429688 308.179688 385.667969 C 302.496094 382.796875 296.589844 381.191406 290.539062 379.753906 C 283.027344 377.640625 275.519531 375.527344 269.367188 370.5 C 268.195312 369.488281 266.738281 368.8125 265.304688 368.449219 C 249.164062 363.832031 235.054688 354.847656 220.675781 346.503906 C 211.695312 341.367188 202.574219 336.398438 192.914062 332.722656 C 187.609375 330.761719 182.570312 328.15625 178.0625 324.257812 C 172.550781 319.496094 166.75 315.066406 159.84375 312.597656 C 157.429688 311.675781 155.425781 309.945312 153.132812 308.546875 C 147.402344 305.054688 141.382812 301.894531 135.796875 298.230469 C 132.691406 296.421875 129.5625 294.304688 127.179688 291.660156 C 119.484375 282.675781 110.011719 275.070312 103.472656 264.75 C 95.144531 257.847656 89.296875 248.414062 80.082031 242.199219 C 76.789062 239.9375 73.878906 236.550781 71.453125 233.285156 C 68.855469 229.875 65.707031 227.441406 61.957031 225.367188 C 54.144531 221.242188 46.480469 216.949219 38.667969 212.824219 C 35.898438 211.304688 33.003906 210.265625 29.96875 209.390625 C 21.980469 207.15625 13.996094 204.917969 6.007812 202.683594 C 2.972656 201.808594 -0.1875 201.414062 -3.320312 201.328125 C -14.761719 201.066406 -26.039062 200.949219 -37.601562 201.164062 C -46.988281 201.222656 -56.257812 202.835938 -65.082031 206.296875 C -69.492188 208.027344 -73.949219 209.132812 -78.550781 210.40625 C -83.609375 211.871094 -88.523438 213.167969 -92.464844 217.054688 C -93.929688 218.410156 -95.875 219.648438 -97.71875 220.09375 C -107.1875 223.289062 -114.6875 229.9375 -124.34375 232.675781 C -125.878906 233.097656 -127.054688 234.125 -128.234375 235.148438 C -135.363281 240.363281 -143.210938 244.375 -151.578125 247.644531 C -154.480469 248.640625 -157.523438 249.800781 -160.046875 251.703125 C -166.242188 256.851562 -173.554688 259.574219 -180.722656 262.128906 C -186.214844 264.09375 -190.632812 267.859375 -195.957031 269.96875 C -208.882812 275.132812 -221.382812 281.832031 -234.519531 286.230469 C -244.300781 289.449219 -254.035156 293.285156 -264.21875 295.28125 C -268.84375 296.242188 -273.320312 297.039062 -277.992188 297.378906 C -287.953125 298.101562 -297.726562 299.285156 -307.519531 300.152344 C -322.605469 301.410156 -337.527344 302.808594 -352.46875 303.894531 C -361.332031 304.699219 -369.957031 306.578125 -378.605469 308.144531 C -394.992188 310.902344 -410.976562 314.882812 -427.011719 320.277344 C -437.394531 323.851562 -447.605469 327.566406 -457.84375 330.972656 C -467.769531 334.355469 -477.167969 338.480469 -486.738281 342.464844 C -490.695312 344.003906 -493.980469 346.121094 -497.203125 349.171875 C -500.566406 352.390625 -504.625 354.71875 -507.988281 357.9375 C -515.171875 364.5625 -522.714844 370.589844 -528.519531 378.992188 C -533.191406 385.75 -539.34375 391.515625 -545.851562 396.683594 C -557.238281 405.808594 -567.097656 416.539062 -576.621094 427.5625 C -581.675781 433.40625 -587.035156 439.273438 -592.421875 444.828125 C -594.15625 446.832031 -595.574219 448.8125 -596.160156 451.515625 C -596.84375 455.007812 -599.867188 456.480469 -602.957031 457.019531 C -617.523438 459.019531 -631.953125 458.503906 -646.039062 454.210938 C -648.429688 453.601562 -651.03125 452.226562 -652.726562 450.472656 C -657.65625 445.039062 -661.847656 439.085938 -662.867188 431.492188 C -663.824219 424.835938 -664.777344 418.175781 -665.417969 411.492188 C -665.644531 408.382812 -665.5625 405.246094 -664.996094 402.230469 C -663.796875 395.101562 -661.804688 388.070312 -658.210938 381.550781 C -652.5625 370.96875 -646.917969 360.386719 -640.9375 350.09375 C -638.574219 346.007812 -635.542969 342.503906 -632.679688 338.851562 C -616.726562 319.382812 -598.226562 302.699219 -576.105469 290.605469 C -547.960938 275.253906 -519.3125 260.339844 -488.035156 251.488281 C -475.621094 247.925781 -463.039062 244.503906 -450.222656 242.164062 C -443.585938 240.898438 -436.78125 239.777344 -430.503906 237.910156 C -421.300781 235.363281 -412.148438 234.226562 -402.765625 234.171875 C -392.925781 233.921875 -383.128906 233.054688 -373.335938 232.183594 C -350.824219 229.761719 -329.683594 223.527344 -310.785156 210.105469 C -298.589844 201.390625 -286.082031 192.65625 -275.074219 182.625 C -273.175781 180.765625 -271.085938 179.359375 -269.023438 177.644531 C -251.449219 165.414062 -235.566406 151.425781 -219.371094 137.414062 C -212.019531 130.933594 -204.667969 124.453125 -198.007812 117.082031 C -189.324219 107.375 -180.808594 97.519531 -174.273438 86.25 C -168.707031 76.765625 -161.464844 68.730469 -153.582031 60.957031 C -151.394531 58.761719 -149.039062 56.714844 -146.351562 54.953125 C -136.34375 48.433594 -125.976562 42.515625 -116.132812 35.855469 C -108.234375 30.429688 -99.175781 28.046875 -89.882812 26.746094 C -83.222656 25.789062 -76.539062 25.148438 -69.859375 24.503906 C -53.40625 22.679688 -44.644531 22.667969 -29.472656 24.691406 C -27.894531 24.890625 -26.316406 25.089844 -24.882812 25.453125 C -12.402344 29.238281 -0.0625 33.191406 10.796875 40.539062 C 20.324219 46.730469 29.441406 53.734375 38.820312 60.089844 C 41.304688 61.945312 43.785156 63.796875 46.410156 65.484375 C 56.726562 71.777344 65.890625 79.402344 74.617188 87.527344 C 86.230469 98.730469 97.695312 110.101562 110.464844 119.96875 C 114.113281 122.832031 117.910156 125.53125 121.558594 128.394531 C 125.210938 131.257812 128.863281 134.121094 132.511719 136.984375 C 141.339844 144.324219 150 151.515625 158.972656 158.6875 C 174.121094 171.195312 191.984375 175.84375 210.964844 176.496094 C 215.679688 176.777344 220.28125 175.503906 224.527344 173.628906 C 227.71875 172.300781 229.402344 169.675781 229.632812 166.371094 C 229.761719 163.859375 229.871094 161.035156 229.378906 158.566406 C 224.679688 137.003906 217.414062 116.71875 206.023438 97.832031 C 195.207031 80.3125 187.578125 72.261719 168.300781 56.765625 C 161.332031 51.328125 154.652344 45.554688 147.539062 40.28125 C 133.792969 29.859375 119.78125 20.085938 103.550781 14.226562 C 92.792969 10.46875 82.304688 6.070312 71.546875 2.316406 C 66.71875 0.476562 61.601562 -1.027344 56.53125 -1.910156 C 43.851562 -4.117188 31.148438 -6.636719 18.304688 -8.984375 C 12.753906 -9.988281 6.960938 -10.039062 1.167969 -10.085938 C -23.460938 -10.953125 -47.410156 -8.894531 -71.09375 -1.066406 C -83.464844 3.117188 -96.089844 5.914062 -108.484375 9.792969 C -117.519531 12.484375 -126.222656 15.464844 -135.238281 18.46875 C -137.683594 19.273438 -140.226562 20.863281 -142.59375 20.566406 C -149.867188 19.53125 -155.699219 23.242188 -161.957031 25.421875 C -174.160156 29.75 -186.363281 34.082031 -197.953125 40.402344 C -202.464844 42.921875 -207.332031 44.839844 -212.578125 45.847656 C -215.046875 46.34375 -217.800781 47.167969 -219.890625 48.574219 C -225.101562 52.238281 -231.539062 51.925781 -237.105469 54.988281 C -242.359375 58.03125 -249.109375 57.742188 -255.3125 58.507812 C -259.503906 58.96875 -263.316406 60.339844 -267.464844 61.425781 C -274.988281 63.382812 -282.75 64.257812 -290.53125 64.828125 C -306.097656 65.960938 -321.554688 64.269531 -337.1875 64.46875 C -343.601562 64.464844 -349.652344 63.027344 -355.050781 59.824219 C -362.71875 55.53125 -370.261719 50.757812 -377.640625 46.132812 C -378.953125 45.289062 -379.976562 44.113281 -381.003906 42.933594 C -381.839844 42.214844 -382.21875 41.300781 -383.050781 40.582031 C -393.949219 30.578125 -402.160156 18.8125 -408.140625 5.476562 C -408.707031 4.113281 -409.898438 2.789062 -410.757812 1.757812 C -412.972656 -0.742188 -413.511719 -3.832031 -413.425781 -6.96875 C -412.605469 -25.804688 -403.996094 -40.828125 -389.15625 -51.921875 C -380.847656 -58.160156 -372.015625 -63.65625 -363.160156 -68.835938 C -353.25 -74.566406 -341.867188 -77.273438 -330.5625 -78.878906 C -309.171875 -81.6875 -288.109375 -80.40625 -267.574219 -73.449219 C -263.726562 -72.164062 -259.445312 -71.382812 -255.472656 -70.574219 C -249.902344 -69.261719 -244.0625 -68.589844 -238.757812 -66.628906 C -229.769531 -63.527344 -220.460938 -62.484375 -211.175781 -61.753906 C -207.5625 -61.546875 -203.804688 -61.507812 -200.699219 -59.699219 C -196.613281 -57.335938 -191.855469 -56.429688 -187.40625 -55.503906 C -177.71875 -53.546875 -167.910156 -52.070312 -158.246094 -50.429688 C -155.230469 -49.867188 -151.949219 -49.949219 -148.835938 -50.175781 C -142.609375 -50.628906 -136.621094 -52.160156 -131.789062 -56.734375 C -129.890625 -58.597656 -127.636719 -59.855469 -125.734375 -61.714844 C -124.125 -63.242188 -123.972656 -65.441406 -124.277344 -67.453125 C -125.171875 -71.144531 -126.953125 -74.144531 -129.648438 -76.765625 C -138.1875 -84.4375 -146.582031 -92.273438 -157.382812 -96.652344 C -162.066406 -98.660156 -166.796875 -101.285156 -171.480469 -103.292969 C -178.097656 -106.097656 -185.273438 -107.921875 -192.425781 -109.433594 C -208.785156 -112.78125 -225.496094 -112.347656 -241.890625 -113.972656 C -248.515625 -114.738281 -255.488281 -113.761719 -262 -112.976562 C -294.574219 -109.039062 -326.960938 -104.648438 -359.367188 -100.566406 C -359.988281 -100.519531 -360.445312 -100.332031 -360.921875 -100.453125 C -368.203125 -99.453125 -374.871094 -96.464844 -382.433594 -97.164062 C -388.859375 -95.132812 -395.09375 -92.644531 -402.03125 -93.390625 C -407.832031 -91.402344 -413.992188 -90.015625 -420.003906 -88.796875 C -423.550781 -88.070312 -426.929688 -87.195312 -430.6875 -87.234375 C -432.722656 -87.246094 -434.902344 -87.085938 -436.890625 -86.472656 C -446.382812 -83.589844 -455.945312 -81.640625 -465.714844 -80.460938 C -470.839844 -79.929688 -475.710938 -78.011719 -480.765625 -76.546875 C -487.214844 -74.828125 -493.613281 -72.484375 -500.25 -71.21875 C -506.433594 -70.140625 -512.234375 -68.152344 -517.824219 -65.398438 C -521.445312 -63.570312 -525.046875 -61.433594 -529.167969 -60.035156 C -533.4375 -58.472656 -538.183594 -57.03125 -542.683594 -56.546875 C -546.875 -56.085938 -550.96875 -56.414062 -554.945312 -55.1875 C -555.859375 -54.804688 -557.105469 -54.714844 -557.914062 -55.125 C -568.9375 -58.234375 -580.625 -57.542969 -591.746094 -59.859375 C -592.226562 -59.984375 -592.847656 -59.9375 -593.324219 -60.058594 C -603.246094 -63.09375 -613.292969 -65.648438 -623.753906 -65.355469 C -624.378906 -65.308594 -624.855469 -65.429688 -625.1875 -65.71875 C -631.566406 -69.480469 -638.222656 -68.527344 -644.882812 -67.570312 C -650.410156 -68.265625 -657.617188 -68.367188 -664.621094 -70.046875 Z M -664.621094 -70.046875 "/>
</g>
</g>
</g>
<g clip-path="url(#clip18)" clip-rule="nonzero">
<path style=" stroke:none;fill-rule:nonzero;fill:rgb(100%,100%,100%);fill-opacity:1;" d="M 2304.253906 425.792969 C 2309.726562 417.683594 2313.375 408.351562 2315.203125 398.210938 C 2316.824219 388.882812 2320.269531 379.960938 2325.945312 372.050781 C 2327.972656 369.210938 2329.394531 365.765625 2331.21875 362.722656 C 2339.53125 348.527344 2350.476562 336.964844 2365.683594 330.273438 C 2367.304688 329.460938 2369.128906 329.054688 2370.546875 328.042969 C 2378.65625 323.378906 2387.171875 321.554688 2396.296875 322.972656 C 2396.902344 322.972656 2397.511719 322.972656 2398.121094 323.175781 C 2403.390625 323.988281 2409.066406 321.554688 2413.933594 324.1875 C 2421.230469 328.042969 2428.125 332.707031 2435.222656 336.964844 C 2436.234375 337.574219 2437.25 338.386719 2437.855469 339.398438 C 2443.53125 349.742188 2450.628906 359.476562 2450.628906 372.253906 C 2450.628906 379.960938 2452.046875 387.667969 2452.453125 395.171875 C 2453.0625 407.746094 2452.859375 420.117188 2447.589844 432.082031 C 2446.574219 434.3125 2446.371094 436.746094 2445.964844 438.976562 C 2444.75 449.726562 2440.492188 459.664062 2435.421875 469.195312 C 2433.195312 473.453125 2430.964844 477.710938 2428.9375 481.972656 C 2424.882812 489.878906 2420.015625 497.382812 2413.527344 503.671875 C 2411.90625 505.292969 2410.082031 507.117188 2408.867188 508.945312 C 2402.582031 519.085938 2393.253906 524.761719 2382.710938 529.425781 C 2364.871094 537.335938 2346.421875 539.769531 2327.164062 539.160156 C 2308.511719 538.554688 2290.671875 534.496094 2272.828125 529.425781 C 2251.746094 523.34375 2230.660156 517.257812 2209.574219 510.363281 C 2186.871094 503.0625 2164.164062 496.777344 2140.441406 493.53125 C 2129.292969 492.113281 2118.34375 488.664062 2107.398438 485.824219 C 2095.839844 482.78125 2084.285156 480.347656 2072.324219 479.742188 C 2062.792969 479.335938 2053.46875 477.507812 2043.941406 477.105469 C 2019.613281 476.089844 1995.285156 472.84375 1970.957031 471.628906 C 1944.800781 470.410156 1918.648438 471.628906 1892.699219 476.089844 C 1879.320312 478.320312 1866.34375 483.1875 1853.164062 486.839844 C 1850.328125 487.648438 1847.488281 488.664062 1844.652344 489.675781 C 1832.890625 493.9375 1821.132812 497.992188 1809.171875 501.441406 C 1796.601562 505.089844 1784.234375 509.550781 1772.070312 513.8125 C 1753.824219 520.300781 1718.144531 529.628906 1701.722656 533.078125 C 1681.851562 537.132812 1662.1875 541.191406 1642.929688 547.273438 C 1621.4375 554.167969 1599.542969 560.253906 1577.445312 564.917969 C 1569.941406 566.539062 1562.441406 568.164062 1554.535156 568.769531 C 1539.53125 569.988281 1526.355469 565.121094 1513.785156 557.820312 C 1506.890625 553.964844 1501.824219 548.085938 1498.378906 540.988281 C 1494.121094 532.46875 1491.28125 523.34375 1490.066406 513.8125 C 1487.429688 492.515625 1490.671875 472.640625 1501.011719 453.375 C 1510.742188 435.125 1523.71875 420.320312 1540.546875 408.152344 C 1567.105469 388.882812 1595.285156 372.660156 1626.304688 361.300781 C 1641.101562 356.03125 1655.699219 351.972656 1671.3125 351.164062 C 1681.449219 350.757812 1691.585938 349.742188 1701.519531 347.917969 C 1715.914062 345.484375 1729.902344 347.308594 1743.890625 350.960938 C 1749.160156 352.378906 1754.230469 353.394531 1759.5 354.40625 C 1793.359375 360.898438 1827.214844 367.792969 1860.464844 377.121094 C 1868.980469 379.554688 1877.695312 381.582031 1886.414062 383.609375 C 1897.566406 386.246094 1908.917969 385.640625 1920.269531 384.625 C 1936.289062 383.207031 1952.101562 380.367188 1967.507812 375.90625 C 1996.5 367.792969 2017.988281 349.945312 2034.207031 325.203125 C 2041.507812 314.253906 2046.980469 302.285156 2051.847656 290.117188 C 2056.914062 277.339844 2058.132812 263.550781 2058.941406 249.964844 C 2059.144531 245.5 2056.914062 241.851562 2053.46875 239.214844 C 2044.34375 232.320312 2034.207031 227.453125 2023.058594 224.816406 C 2008.664062 221.367188 1994.472656 223.597656 1981.09375 229.480469 C 1965.074219 236.578125 1950.882812 246.109375 1939.125 259.089844 C 1936.691406 261.726562 1933.855469 264.160156 1931.828125 267 C 1923.3125 279.371094 1911.757812 288.902344 1901.417969 299.648438 C 1895.335938 306.140625 1888.035156 311.617188 1881.34375 317.292969 C 1879.519531 318.917969 1877.492188 320.335938 1875.261719 321.148438 C 1865.328125 324.796875 1855.394531 329.664062 1845.054688 331.691406 C 1827.621094 335.140625 1809.78125 336.359375 1791.9375 331.492188 C 1786.058594 329.867188 1780.992188 327.636719 1775.71875 324.390625 C 1759.097656 314.050781 1747.132812 299.246094 1736.59375 283.425781 C 1730.105469 273.488281 1723.820312 263.347656 1719.5625 252.195312 C 1718.546875 249.355469 1717.128906 246.71875 1715.507812 244.285156 C 1708.613281 233.128906 1703.140625 221.367188 1700.097656 208.386719 C 1698.679688 202.710938 1695.640625 197.234375 1693.003906 192.164062 C 1689.152344 184.863281 1684.691406 177.765625 1680.433594 170.464844 C 1676.175781 163.367188 1670.90625 156.875 1666.039062 150.183594 C 1660.972656 143.289062 1655.292969 142.070312 1647.589844 143.492188 C 1634.414062 145.925781 1622.453125 150.589844 1612.71875 159.917969 C 1608.867188 163.570312 1605.21875 167.625 1602.582031 172.289062 C 1594.472656 186.078125 1585.554688 199.464844 1578.050781 213.660156 C 1567.105469 234.144531 1557.375 255.234375 1550.683594 277.542969 C 1549.265625 282.613281 1547.035156 287.480469 1545.007812 292.550781 C 1539.125 307.355469 1531.828125 321.757812 1527.164062 337.167969 C 1525.136719 343.660156 1520.070312 348.121094 1517.027344 353.800781 C 1511.960938 363.535156 1504.863281 371.238281 1495.742188 377.324219 C 1489.253906 381.582031 1483.578125 386.855469 1477.496094 391.519531 C 1464.113281 401.457031 1449.113281 406.527344 1432.488281 405.515625 C 1424.175781 404.90625 1416.269531 401.457031 1408.765625 398.011719 C 1402.886719 395.375 1397.617188 391.316406 1391.128906 389.492188 C 1388.292969 388.679688 1386.464844 385.84375 1385.65625 383.003906 C 1384.84375 380.570312 1384.84375 378.136719 1386.265625 376.109375 C 1391.332031 368.804688 1398.226562 364.546875 1407.550781 365.765625 C 1412.820312 366.371094 1418.09375 367.386719 1423.363281 368.804688 C 1429.851562 370.632812 1436.136719 370.632812 1442.828125 370.632812 C 1455.800781 370.632812 1467.15625 367.386719 1478.101562 360.289062 C 1484.183594 356.433594 1490.066406 352.785156 1495.132812 347.511719 C 1497.972656 344.46875 1500.808594 340.820312 1504.257812 339.195312 C 1511.554688 335.546875 1514.394531 329.058594 1516.421875 322.363281 C 1520.679688 308.574219 1526.761719 295.796875 1531.421875 282.210938 C 1534.464844 273.894531 1537.707031 265.578125 1539.734375 256.65625 C 1542.167969 244.894531 1547.84375 234.347656 1552.710938 223.394531 C 1562.238281 202.101562 1573.59375 182.023438 1585.554688 162.148438 C 1588.59375 157.078125 1591.839844 152.007812 1596.5 148.359375 C 1598.324219 146.9375 1600.351562 145.316406 1601.570312 143.289062 C 1605.625 136.796875 1612.113281 133.757812 1618.597656 131.121094 C 1626.910156 127.671875 1636.035156 126.457031 1644.753906 126.050781 C 1658.335938 125.238281 1670.5 130.105469 1680.839844 139.027344 C 1688.339844 145.722656 1695.03125 153.429688 1699.492188 162.757812 C 1706.179688 176.140625 1712.464844 189.527344 1715.914062 204.128906 C 1718.34375 214.675781 1721.996094 224.613281 1726.859375 234.347656 C 1727.875 236.375 1728.683594 239.214844 1730.511719 240.429688 C 1736.792969 244.488281 1738.621094 250.164062 1738.820312 257.0625 C 1738.820312 258.683594 1740.039062 260.507812 1740.847656 261.929688 C 1745.511719 268.824219 1749.972656 275.71875 1754.839844 282.613281 C 1755.851562 284.035156 1757.269531 285.453125 1758.691406 286.265625 C 1765.582031 291.132812 1772.476562 295.59375 1779.371094 300.460938 C 1784.4375 303.910156 1790.113281 305.328125 1796.195312 306.140625 C 1814.644531 308.371094 1833.09375 307.152344 1851.136719 303.300781 C 1858.234375 301.882812 1864.722656 298.433594 1870.195312 294.175781 C 1883.371094 284.035156 1896.347656 273.691406 1909.324219 262.941406 C 1914.796875 258.480469 1919.867188 253.207031 1924.730469 247.933594 C 1929.597656 242.664062 1934.460938 237.59375 1939.734375 232.726562 C 1945.410156 227.25 1950.882812 221.976562 1957.980469 218.527344 C 1969.128906 213.050781 1980.6875 208.183594 1992.851562 205.347656 C 2002.988281 203.117188 2013.125 204.738281 2022.855469 207.578125 C 2033.195312 210.617188 2042.925781 215.082031 2051.847656 221.164062 C 2059.144531 226.03125 2064.214844 232.320312 2067.253906 240.226562 C 2070.699219 249.355469 2072.324219 258.480469 2070.699219 268.214844 C 2069.890625 272.878906 2069.484375 277.746094 2069.078125 282.410156 C 2067.660156 294.984375 2064.011719 306.949219 2058.335938 318.105469 C 2053.875 327.230469 2049.007812 336.15625 2043.738281 344.671875 C 2034.207031 360.085938 2020.421875 371.441406 2005.621094 381.785156 C 2001.769531 384.421875 1997.109375 386.042969 1992.648438 387.667969 C 1981.089844 392.128906 1968.726562 394.765625 1957.167969 399.023438 C 1954.9375 399.835938 1952.507812 399.835938 1950.074219 400.039062 C 1937.707031 400.648438 1925.136719 400.847656 1912.769531 402.066406 C 1902.023438 403.082031 1891.28125 400.847656 1880.941406 398.011719 C 1858.03125 391.519531 1834.714844 386.652344 1811.402344 381.582031 C 1803.292969 379.757812 1794.980469 378.542969 1786.871094 377.324219 C 1783.425781 376.714844 1779.773438 376.511719 1776.328125 376.714844 C 1766.800781 376.917969 1757.269531 377.527344 1747.742188 377.527344 C 1741.863281 377.527344 1735.78125 377.121094 1729.902344 376.308594 C 1717.941406 374.484375 1706.179688 374.6875 1694.421875 377.527344 C 1693.207031 377.730469 1692.191406 378.542969 1690.976562 378.542969 C 1672.730469 379.148438 1656.308594 385.84375 1639.886719 393.144531 C 1635.628906 394.96875 1630.964844 396.792969 1626.507812 398.011719 C 1615.558594 400.847656 1605.21875 405.3125 1594.878906 410.179688 C 1583.527344 415.453125 1572.984375 421.941406 1564.46875 431.675781 C 1558.589844 438.367188 1551.898438 444.25 1545.613281 450.738281 C 1533.855469 462.703125 1524.933594 476.699219 1517.636719 491.707031 C 1514.597656 498.195312 1512.367188 504.886719 1510.742188 511.988281 C 1509.121094 518.476562 1509.730469 525.167969 1511.554688 531.457031 C 1514.191406 539.769531 1520.070312 545.855469 1528.988281 547.882812 C 1534.871094 549.101562 1540.75 549.503906 1546.628906 548.695312 C 1570.144531 545.449219 1593.460938 541.191406 1616.371094 534.292969 C 1641.507812 526.792969 1666.648438 520.097656 1692.394531 515.027344 C 1718.546875 509.753906 1744.296875 502.25 1769.839844 493.734375 C 1782.816406 489.476562 1795.789062 485.214844 1808.765625 480.753906 C 1813.226562 479.335938 1817.6875 477.710938 1822.148438 475.886719 C 1867.558594 457.230469 1914.796875 449.726562 1963.65625 452.566406 C 1985.550781 453.78125 2007.648438 455.199219 2029.546875 456.824219 C 2045.5625 458.039062 2061.578125 459.867188 2077.59375 461.691406 C 2089.960938 463.109375 2102.328125 465.136719 2114.289062 468.789062 C 2121.589844 471.019531 2129.496094 471.832031 2136.996094 473.25 C 2146.320312 475.074219 2155.851562 476.496094 2165.175781 478.320312 C 2184.4375 482.175781 2202.886719 489.070312 2221.535156 495.152344 C 2241.8125 501.847656 2262.488281 507.929688 2283.167969 513.203125 C 2291.886719 515.433594 2300.605469 516.652344 2309.523438 518.273438 C 2321.890625 520.300781 2334.460938 519.894531 2346.828125 518.679688 C 2359.398438 517.460938 2371.15625 513.609375 2382.308594 507.726562 C 2387.578125 504.886719 2392.039062 501.441406 2394.671875 495.558594 C 2396.699219 491.300781 2400.148438 487.851562 2403.1875 484.203125 C 2411.90625 473.65625 2419.40625 462.300781 2424.476562 449.320312 C 2427.921875 440.394531 2431.976562 431.878906 2435.421875 422.957031 C 2436.4375 420.320312 2437.449219 417.277344 2437.855469 414.4375 C 2439.882812 400.039062 2439.277344 385.84375 2433.800781 372.253906 C 2432.382812 369.007812 2430.761719 365.765625 2428.734375 362.925781 C 2419.609375 349.132812 2406.835938 343.660156 2390.417969 345.484375 C 2376.226562 347.105469 2364.464844 354.203125 2354.328125 363.332031 C 2348.652344 368.402344 2344.191406 375.09375 2339.933594 381.378906 C 2337.90625 384.21875 2337.097656 387.871094 2336.488281 391.316406 C 2335.878906 395.375 2336.285156 399.632812 2336.285156 403.6875 C 2336.488281 415.046875 2337.300781 426.199219 2337.300781 437.558594 C 2337.097656 445.265625 2336.894531 453.171875 2334.867188 460.472656 C 2330.8125 474.671875 2327.363281 477.105469 2313.171875 469.804688 C 2307.902344 467.167969 2305.265625 462.703125 2304.660156 457.027344 C 2304.253906 454.1875 2304.660156 451.144531 2304.660156 448.101562 C 2304.253906 441.003906 2304.253906 434.515625 2304.253906 425.792969 Z M 2304.253906 425.792969 "/>
</g>
</g>
</svg>
